<?xml version="1.0" encoding="iso-8859-1"?>
<!-- Generator: Adobe Illustrator 16.0.0, SVG Export Plug-In . SVG Version: 6.00 Build 0)  -->
<!DOCTYPE svg PUBLIC "-//W3C//DTD SVG 1.1//EN" "http://www.w3.org/Graphics/SVG/1.1/DTD/svg11.dtd">
<svg version="1.1" id="Capa_1" xmlns="http://www.w3.org/2000/svg" xmlns:xlink="http://www.w3.org/1999/xlink" x="0px" y="0px"
	 width="310.468px" height="310.468px" viewBox="0 0 310.468 310.468" style="enable-background:new 0 0 310.468 310.468;"
	 xml:space="preserve">
<g>
	<g>
		<path d="M149.381,242.649V77.967c0-0.335,0.032-0.675,0.097-1.01c0.006-0.021,0.042-0.211,0.124-0.514
			c-2.489-6.576-12.079-23.554-44.771-23.554C78.226,52.89,42.968,63.954,0,85.791v171.788
			c18.853-8.833,67.614-29.759,106.684-29.759C127.939,227.82,141.157,234.138,149.381,242.649z M27.757,103.833
			c2.479-1.278,61.182-31.224,89.683-15.952c2.631,1.411,3.618,4.683,2.209,7.312c-1.405,2.624-4.677,3.612-7.312,2.21
			c-2.483-1.334-5.379-2.188-8.554-2.668c-14.143-2.127-34.048,3.385-50.021,9.45c-8.719,3.31-16.274,6.776-21.059,9.245
			c-0.789,0.406-1.638,0.601-2.474,0.601c-1.954,0-3.844-1.065-4.807-2.921C24.063,108.456,25.104,105.2,27.757,103.833z
			 M27.757,137.692c2.479-1.281,61.182-31.219,89.683-15.952c2.631,1.408,3.618,4.683,2.209,7.312
			c-1.405,2.618-4.677,3.618-7.312,2.21c-2.483-1.329-5.374-2.188-8.548-2.669c-14.144-2.128-34.054,3.391-50.027,9.45
			c-8.719,3.309-16.269,6.771-21.054,9.239c-0.788,0.406-1.637,0.599-2.473,0.599c-1.954,0-3.844-1.062-4.807-2.922
			C24.063,142.319,25.104,139.058,27.757,137.692z M53.768,171.912c-8.72,3.312-16.279,6.775-21.064,9.244
			c-0.789,0.406-1.638,0.601-2.474,0.601c-1.954,0-3.844-1.065-4.807-2.921c-1.366-2.652-0.33-5.912,2.323-7.283
			c2.479-1.275,61.182-31.216,89.683-15.946c2.629,1.407,3.617,4.683,2.209,7.309c-1.406,2.626-4.678,3.612-7.312,2.21
			c-2.483-1.334-5.379-2.188-8.559-2.669C89.641,160.341,69.741,165.852,53.768,171.912z"/>
		<path d="M160.872,76.444c-0.361,0.951-0.577,1.689-0.69,2.133v164.969c0.282-0.311,0.616-0.591,0.906-0.896
			c8.232-8.511,21.447-14.829,42.694-14.829c39.07,0,87.834,20.926,106.687,29.759V85.791C267.5,63.954,232.243,52.89,205.638,52.89
			C172.99,52.89,163.381,69.831,160.872,76.444z M283.352,178.83c-0.959,1.861-2.842,2.927-4.804,2.927
			c-0.828,0-1.683-0.194-2.468-0.601c-4.794-2.474-12.372-5.943-21.109-9.255c-15.969-6.049-35.844-11.549-49.95-9.435
			c-3.19,0.475-6.086,1.329-8.564,2.663c-2.637,1.403-5.911,0.411-7.314-2.21c-1.407-2.631-0.416-5.9,2.21-7.313
			c28.508-15.264,87.191,14.676,89.68,15.957C283.685,172.923,284.723,176.183,283.352,178.83z M283.352,144.964
			c-0.959,1.864-2.842,2.927-4.804,2.927c-0.828,0-1.683-0.192-2.468-0.598c-4.794-2.474-12.366-5.941-21.109-9.25
			c-15.969-6.049-35.85-11.546-49.95-9.434c-3.19,0.475-6.086,1.329-8.564,2.663c-2.637,1.397-5.911,0.409-7.314-2.209
			c-1.407-2.629-0.416-5.901,2.21-7.312c28.508-15.267,87.191,14.67,89.68,15.952C283.685,139.058,284.723,142.319,283.352,144.964z
			 M281.032,103.833c2.647,1.366,3.691,4.622,2.32,7.275c-0.959,1.862-2.842,2.927-4.804,2.927c-0.828,0-1.683-0.195-2.468-0.601
			c-4.799-2.474-12.377-5.946-21.12-9.255c-15.968-6.049-35.839-11.546-49.939-9.435c-3.19,0.475-6.086,1.334-8.564,2.663
			c-2.637,1.403-5.911,0.409-7.314-2.209c-1.407-2.629-0.416-5.901,2.21-7.312C219.86,72.604,278.543,102.547,281.032,103.833z"/>
	</g>
</g>
<g>
</g>
<g>
</g>
<g>
</g>
<g>
</g>
<g>
</g>
<g>
</g>
<g>
</g>
<g>
</g>
<g>
</g>
<g>
</g>
<g>
</g>
<g>
</g>
<g>
</g>
<g>
</g>
<g>
</g>
</svg>
